<svg width="32" height="32" viewBox="0 0 32 32" fill="none" xmlns="http://www.w3.org/2000/svg">
<g clip-path="url(#clip0)">
<path d="M20.5311 0.10437C19.9545 0.10437 19.4871 0.571808 19.4871 1.14837V3.23643C19.4871 3.81299 19.9545 4.28043 20.5311 4.28043C21.1076 4.28043 21.5751 3.81299 21.5751 3.23643V1.14843C21.5751 0.571808 21.1076 0.10437 20.5311 0.10437Z" fill="#B35340"/>
<path d="M30.9559 10.5293H28.8679C28.2913 10.5293 27.8239 10.9967 27.8239 11.5733C27.8239 12.1499 28.2913 12.6173 28.8679 12.6173H30.9559C31.5325 12.6173 31.9999 12.1499 31.9999 11.5733C32 10.9967 31.5325 10.5293 30.9559 10.5293Z" fill="#B35340"/>
<path d="M29.6062 2.4982C29.1985 2.09045 28.5375 2.09045 28.1298 2.4982L26.0417 4.58626C25.6339 4.99401 25.6339 5.65501 26.0417 6.0627C26.4492 6.47045 27.1104 6.47051 27.5181 6.0627L29.6062 3.97463C30.0139 3.56695 30.0139 2.90595 29.6062 2.4982Z" fill="#B35340"/>
<path d="M26.7121 14.0424L17.8531 5.18356C17.4456 4.77606 16.7843 4.77588 16.3767 5.18356L12.7278 8.83256C12.6116 8.94875 12.5245 9.09375 12.4755 9.24063L11.077 13.4363L0.915891 23.5973C-0.305297 24.8186 -0.305297 26.8056 0.915891 28.0267L3.86889 30.9797C5.08983 32.2007 7.07689 32.2011 8.29827 30.9797C8.83495 30.443 18.1085 21.1694 18.4593 20.8186L22.655 19.4201C22.8118 19.3678 22.9548 19.2761 23.0631 19.1678L26.7121 15.5189C27.1196 15.1114 27.1197 14.4501 26.7121 14.0424ZM6.82183 29.5033C6.41477 29.9104 5.75239 29.9104 5.34539 29.5033L2.39239 26.5503C1.98539 26.1431 1.98539 25.4808 2.39239 25.0738L3.13064 24.3356L7.56008 28.765L6.82183 29.5033ZM9.03652 27.2885L4.60708 22.8591L11.9895 15.4767L16.4188 19.9061L9.03652 27.2885ZM18.1773 18.7116L13.184 13.7183L13.9221 11.5035L20.392 17.9733L18.1773 18.7116ZM22.3248 16.9531L14.9425 9.57081L17.115 7.39825L24.4973 14.7806L22.3248 16.9531Z" fill="#B35340"/>
<path d="M12.7278 19.168C12.3201 18.7601 11.659 18.7601 11.2514 19.168L9.77493 20.6444C9.36718 21.0521 9.36718 21.7131 9.77493 22.1208C10.1826 22.5286 10.8437 22.5286 11.2514 22.1208L12.7278 20.6444C13.1355 20.2366 13.1355 19.5756 12.7278 19.168Z" fill="#B35340"/>
</g>
<defs>
<clipPath id="clip0">
<rect width="32" height="32" fill="white"/>
</clipPath>
</defs>
</svg>
